HIERARCHY
ROOT hip
{
	OFFSET 0.000000 0.000000 0.000000 
	CHANNELS 6 Xposition Yposition Zposition Xrotation Zrotation Yrotation
	JOINT abdomen
	{
		OFFSET 0.000000 3.402643 0.000000 
		CHANNELS 3 Xrotation Zrotation Yrotation
		JOINT chest
		{
			OFFSET 0.000000 8.438565 -0.680529 
			CHANNELS 3 Xrotation Zrotation Yrotation
			JOINT neck
			{
				OFFSET 0.000000 10.207942 -0.272212 
				CHANNELS 3 Xrotation Zrotation Yrotation
				JOINT head
				{
					OFFSET 0.000000 3.130431 0.000000 
					CHANNELS 3 Xrotation Zrotation Yrotation
					End Site
					{
						OFFSET 0.000000 3.130435 0.000000 
					}
				}
			}
			JOINT lCollar
			{
				OFFSET 3.470700 6.669187 -0.816635 
				CHANNELS 3 Yrotation Zrotation Xrotation
				JOINT lShldr
				{
					OFFSET 3.198488 0.000000 0.000000 
					CHANNELS 3 Zrotation Yrotation Xrotation
					JOINT lForeArm
					{
						OFFSET 10.139888 0.000000 0.000000 
						CHANNELS 3 Yrotation Zrotation Xrotation
						JOINT lHand
						{
							OFFSET 8.370511 0.000000 0.000000 
							CHANNELS 3 Zrotation Yrotation Xrotation
							End Site
							{
								OFFSET 4.083176 0.000000 0.000000 
							}
						}
					}
				}
			}
			JOINT rCollar
			{
				OFFSET -3.470700 6.669187 -0.816635 
				CHANNELS 3 Yrotation Zrotation Xrotation
				JOINT rShldr
				{
					OFFSET -3.198488 0.000000 0.000000 
					CHANNELS 3 Zrotation Yrotation Xrotation
					JOINT rForeArm
					{
						OFFSET -10.139888 0.000000 0.000000 
						CHANNELS 3 Yrotation Zrotation Xrotation
						JOINT rHand
						{
							OFFSET -8.370511 0.000000 0.000000 
							CHANNELS 3 Zrotation Yrotation Xrotation
							End Site
							{
								OFFSET -4.083176 0.000000 0.000000 
							}
						}
					}
				}
			}
		}
	}
	JOINT lThigh
	{
		OFFSET 5.308129 -1.633274 1.361059 
		CHANNELS 3 Xrotation Zrotation Yrotation
		JOINT lShin
		{
			OFFSET -2.041588 -20.007561 0.000000 
			CHANNELS 3 Xrotation Zrotation Yrotation
			JOINT lFoot
			{
				OFFSET 0.000000 -19.190928 -1.224953 
				CHANNELS 3 Xrotation Yrotation Zrotation
				End Site
				{
					OFFSET 0.000000 -2.449906 4.627600 
				}
			}
		}
	}
	JOINT rThigh
	{
		OFFSET -5.308129 -1.633274 1.361059 
		CHANNELS 3 Xrotation Zrotation Yrotation
		JOINT rShin
		{
			OFFSET 2.041588 -20.007561 0.000000 
			CHANNELS 3 Xrotation Zrotation Yrotation
			JOINT rFoot
			{
				OFFSET 0.000000 -19.190928 -1.224953 
				CHANNELS 3 Xrotation Yrotation Zrotation
				End Site
				{
					OFFSET 0.000000 -2.449906 4.627600 
				}
			}
		}
	}
}
MOTION
Frames: 11
Frame Time: 0.030334
-0.590217 40.402611 -0.961212 9.211550 -3.952440 0.706722 3.282090 -0.944282 -0.348461 1.406610 -0.404693 -0.149341 -16.360300 4.627460 -4.833760 0.410315 6.556860 -1.953560 2.000000 -2.000000 0.000000 -85.740196 -8.124200 -167.276993 32.646801 -0.329965 0.073812 0.046411 -0.023813 -145.457001 -2.000000 2.000000 0.000000 -95.203903 170.434998 -5.854580 -34.482800 0.327543 0.077407 -0.058742 0.037072 -150.281006 -17.560488 5.547698 -2.286947 36.452946 2.631518 2.624441 -34.466431 10.638141 8.522280 -33.473255 -0.181418 9.237769 39.746994 -2.160340 -2.970524 -21.391129 -16.068632 -7.778431 
-0.327230 40.273018 -1.423282 10.189500 -1.595540 -1.048620 3.437910 -0.705352 0.264977 1.473390 -0.302294 0.113562 -15.627500 3.864570 -4.399870 0.379731 6.761370 -1.785430 2.000000 -2.000000 0.000000 -84.530403 -8.451560 -169.453995 34.297199 -0.327794 0.077096 0.046014 -0.020997 -144.440994 -2.000000 2.000000 0.000000 -93.006203 171.020996 -1.988860 -34.834400 0.327066 0.078097 -0.054951 0.013302 -141.677994 -18.675808 2.616877 -2.152389 36.557087 2.451763 2.702982 -35.336491 11.651549 9.637821 -35.259430 -1.916674 11.340431 39.184322 -2.214075 -2.923075 -18.524233 -15.682912 -6.650413 
-0.067604 40.313942 -1.930466 10.404800 -1.661690 -2.561090 3.342709 -0.717076 0.675321 1.432590 -0.307318 0.289423 -15.209000 2.719760 -4.032290 0.676475 6.392410 -1.640390 2.000000 -2.000000 0.000000 -83.437698 -8.915920 -171.737000 35.674198 -0.325910 0.079788 0.045777 -0.019125 -143.766998 -2.000000 2.000000 0.000000 -91.404602 171.093002 -0.260519 -36.465199 0.324798 0.081259 -0.055048 0.014419 -142.078003 -19.444044 2.386012 -2.379798 36.982067 2.408059 2.729684 -35.791264 12.374383 10.330798 -35.414799 -2.085999 10.512880 38.948513 -2.223234 -2.911923 -18.734747 -12.192689 -5.517255 
0.114020 40.371216 -2.459635 10.346900 -1.786890 -3.548990 3.405361 -0.696200 1.071192 1.459440 -0.298371 0.459082 -15.529800 1.833510 -3.844570 0.549760 6.167640 -1.601950 2.000000 -2.000000 0.000000 97.449997 -170.492996 5.911280 37.178101 -0.323779 0.082675 0.045602 -0.017604 -143.220993 -2.000000 2.000000 0.000000 -90.545303 171.098007 1.907440 -37.793400 0.322886 0.083786 -0.054927 0.013002 -141.570007 -20.044245 2.490553 -2.048469 37.310394 2.354994 2.774544 -35.698261 12.570871 10.447133 -34.848988 -3.086068 6.989757 39.390114 -2.211107 -2.927404 -18.861647 -9.065399 -4.437410 
0.210751 40.393478 -2.964337 10.161900 -1.903280 -4.169340 3.660440 -0.558480 1.500825 1.568760 -0.239348 0.643211 -15.625800 0.894508 -3.671800 0.560921 5.855750 -1.582140 2.000000 -2.000000 0.000000 98.064598 -169.882004 3.725210 38.681999 -0.321573 0.085505 0.045374 -0.015400 -142.429993 -2.000000 2.000000 0.000000 -90.291603 171.063995 3.782540 -39.228901 0.320753 0.086466 -0.054864 0.012212 -141.287003 -20.637762 2.766335 -1.428365 37.811321 2.334780 2.787104 -35.269600 12.627019 10.331673 -33.680779 -4.139504 3.501501 40.637630 -2.175806 -3.004669 -18.975433 -7.764347 -3.977286 
0.233509 40.380863 -3.431024 9.655400 -2.166170 -4.323630 3.990770 -0.619779 1.841661 1.710330 -0.265619 0.789284 -15.667100 -0.071438 -3.494020 0.581996 5.485400 -1.577520 2.000000 -2.000000 0.000000 98.650002 -169.203995 1.920150 39.893002 -0.319744 0.087742 0.045179 -0.013221 -141.647995 -2.000000 2.000000 0.000000 -90.321098 171.018005 5.218200 -40.420300 0.318932 0.088650 -0.054744 0.010521 -140.682007 -20.973803 3.315370 -0.739839 38.471432 2.304640 2.851667 -34.739864 12.131717 9.775820 -32.025444 -4.951865 0.963051 42.543652 -2.105323 -3.120973 -19.253220 -7.456147 -3.931589 
0.193303 40.364014 -3.811850 9.079860 -2.333700 -3.839730 4.250750 -0.771878 1.884664 1.821750 -0.330805 0.807713 -15.004400 -0.721955 -3.296190 0.886812 5.262160 -1.507050 2.000000 -2.000000 0.000000 99.274597 -168.623993 0.612910 40.840302 -0.318280 0.089464 0.045122 -0.012513 -141.393997 -2.000000 2.000000 0.000000 -90.643600 170.912994 6.058310 -41.240601 0.317652 0.090131 -0.054580 0.007626 -139.645996 -21.219904 3.574016 -0.644296 38.970783 2.305707 2.860988 -34.136051 11.876493 9.343739 -30.130457 -5.606627 -0.083577 44.613789 -2.048540 -3.215931 -19.865606 -7.558904 -4.101795 
0.079816 40.345478 -4.090315 8.679030 -2.316940 -2.873210 4.461800 -0.997016 1.799480 1.912200 -0.427293 0.771206 -13.684600 -1.089610 -3.067560 1.455870 5.136750 -1.380190 2.000000 -2.000000 0.000000 99.694397 -168.406998 -0.343616 41.709400 -0.316912 0.091022 0.044959 -0.010221 -140.574005 -2.000000 2.000000 0.000000 -91.170998 170.845001 6.429580 -41.689899 0.316943 0.090934 -0.054569 0.007381 -139.559006 -21.490896 3.605536 -0.870314 39.317074 2.268311 2.899851 -33.435944 11.561517 8.879078 -28.255957 -6.361527 -0.575613 45.797306 -2.072891 -3.255340 -20.634710 -7.675831 -4.328980 
-0.135385 40.273018 -4.279627 8.403440 -1.970820 -2.459220 4.586540 -1.126952 2.079544 1.965660 -0.482979 0.891233 -11.741600 -1.342050 -2.838230 2.299160 5.030460 -1.243180 2.000000 -2.000000 0.000000 100.182999 -168.279007 -0.802303 42.451599 -0.315725 0.092336 0.044888 -0.009048 -140.154007 -2.000000 2.000000 0.000000 -91.786201 170.942001 6.185190 -42.119598 0.316258 0.091697 -0.054583 0.007681 -139.666000 -21.675041 3.358862 -1.171118 39.718071 2.280359 2.915050 -33.289639 11.322287 8.648461 -26.498724 -6.869610 0.065126 45.350307 -2.161234 -3.194207 -21.495161 -8.283263 -4.781825 
-0.443408 40.170441 -4.436855 8.119000 -1.740200 -2.181990 4.608871 -1.209163 2.329287 1.975230 -0.518213 0.998266 -10.519900 -2.011180 -2.615590 2.789260 4.737650 -1.164790 2.000000 -2.000000 0.000000 100.778000 -168.434998 -1.095640 43.359798 -0.314250 0.093923 0.044887 -0.009020 -140.143997 -2.000000 2.000000 0.000000 -92.508698 170.776001 6.048890 -42.109798 0.316274 0.091680 -0.054587 0.007763 -139.695007 -21.804443 3.419052 -1.416001 40.159714 2.267667 2.930428 -33.256180 11.183255 8.549075 -24.711927 -6.625371 1.633681 43.832573 -2.295768 -3.086240 -22.107479 -9.542390 -5.422885 
-0.834981 40.073143 -4.555338 7.795980 -1.586770 -1.662720 4.745159 -1.330018 2.340927 2.033640 -0.570008 1.003255 -9.311100 -2.303700 -2.238270 3.288870 4.590860 -0.985075 2.000000 -2.000000 0.000000 101.530998 -168.834000 -1.614150 44.687901 -0.312047 0.096202 0.044826 -0.007873 -139.733994 -2.000000 2.000000 0.000000 -93.113998 170.238998 6.157670 -41.768002 0.316819 0.091073 -0.054591 0.007845 -139.725006 -21.858835 3.459312 -2.148119 40.530670 2.286869 2.938927 -33.286442 11.321143 8.671188 -23.076387 -5.717260 3.972723 42.215687 -2.428711 -2.964987 -23.703142 -12.439298 -7.018856 
